<svg width="131" height="123" viewBox="0 0 131 123" fill="none" xmlns="http://www.w3.org/2000/svg">
<path d="M84.6889 117.069C67.4136 123.06 49.6011 122.129 34.7915 115.695C33.7885 115.282 32.6089 115.224 31.6066 115.639L13.9193 122.635C10.4408 123.999 7.01679 120.453 8.48813 117.02L13.9027 104.416C14.5501 102.877 14.2536 101.162 13.1908 99.9206C8.82172 94.7782 5.33657 88.866 3.08928 82.1836C-7.73228 51.0192 11.345 16.0416 45.6598 4.0612C80.0336 -7.86014 116.615 7.72321 127.377 38.9468C138.14 70.1704 119.063 105.148 84.6889 117.069Z" fill="#FCD74B"/>
<path d="M99.1559 71.1525C80.9443 85.3069 53.5176 83.6756 43.9631 83.7435C41.5449 83.7457 40.7215 86.2901 41.9031 88.4186C45.3296 94.6858 49.5817 100.834 58.0774 103.843C60.668 98.9309 65.9695 91.7093 75.1099 90.2812C84.9579 88.6751 90.7985 90.4444 95.1064 93.1615C99.7009 86.7095 102.112 79.1948 103.229 74.5797C103.875 71.9763 101.278 69.4942 99.2148 71.1524L99.1559 71.1525Z" fill="#020001"/>
<path d="M75.0508 90.2813C65.9104 91.7685 60.6089 98.9901 58.0183 103.843C62.4431 105.377 68.0467 106.082 75.3005 105.425C84.3236 104.588 90.6295 99.3177 95.0473 93.1616C90.7394 90.4445 84.8988 88.6752 75.0508 90.2813Z" fill="#EA665F"/>
<path d="M84.3686 58.2116C86.8085 58.0893 88.6216 54.6837 88.4183 50.605C88.215 46.5264 86.0722 43.3192 83.6323 43.4415C81.1923 43.5639 79.3792 46.9694 79.5825 51.0481C79.7858 55.1267 81.9286 58.334 84.3686 58.2116Z" fill="#020001"/>
<path d="M58.3486 63.294C60.7885 63.1717 62.6016 59.7661 62.3983 55.6874C62.195 51.6088 60.0522 48.4016 57.6122 48.5239C55.1723 48.6463 53.3592 52.0518 53.5625 56.1305C53.7658 60.2091 55.9086 63.4164 58.3486 63.294Z" fill="#020001"/>
</svg>
