<svg width="71" height="67" viewBox="0 0 71 67" fill="none" xmlns="http://www.w3.org/2000/svg">
<path d="M24.8629 63.5461C34.2435 66.791 43.9156 66.2498 51.9335 62.7524C52.4641 62.5153 53.1129 62.5147 53.7029 62.7508L63.3199 66.5279C65.2079 67.2952 67.0345 65.3414 66.266 63.4492L63.3108 56.59C62.9562 55.7621 63.1323 54.8155 63.7215 54.1643C66.0781 51.3819 67.9625 48.1858 69.1977 44.5171C75.0212 27.5937 64.6236 8.61471 45.9804 2.1839C27.3372 -4.24691 7.46904 4.23026 1.64561 21.2128C-4.17787 38.1362 6.21972 57.1153 24.8629 63.5461Z" fill="#FCD74B"/>
<path d="M47.2563 43.2357C42.0661 43.2404 28.0879 43.0166 17.2888 36.4603C16.0495 35.6924 14.5763 36.9951 15.1083 38.3552C16.409 41.785 18.5948 45.6871 21.6053 48.5238C25.909 46.6269 33.6924 44.6678 40.0089 50.9323C43.5464 49.6277 46.7296 47.7319 48.3792 45.8375C49.263 44.831 48.5539 43.2937 47.2563 43.2948L47.2563 43.2357Z" fill="#020001"/>
<path d="M21.5463 48.5239C22.904 49.824 24.4385 50.8874 26.1495 51.6548C29.9847 53.3077 35.3511 52.5929 39.9499 50.9324C33.6335 44.727 25.8501 46.6861 21.5463 48.5239Z" fill="#EA665F"/>
<path d="M28.1582 27.4014C28.3801 25.3552 27.5624 23.5877 26.3319 23.4534C25.1014 23.3192 23.924 24.8691 23.7021 26.9152C23.4802 28.9614 24.2978 30.7289 25.5284 30.8632C26.7589 30.9974 27.9363 29.4475 28.1582 27.4014Z" fill="#020001"/>
<path d="M40.2558 30.1912C40.4777 28.145 39.6601 26.3775 38.4296 26.2432C37.199 26.109 36.0216 27.6589 35.7997 29.705C35.5778 31.7512 36.3955 33.5187 37.626 33.653C38.8565 33.7872 40.0339 32.2373 40.2558 30.1912Z" fill="#020001"/>
</svg>
