<?xml version="1.0" encoding="UTF-8"?>
<svg id="Layer_1" xmlns="http://www.w3.org/2000/svg" version="1.1" viewBox="0 0 60 60">
  <!-- Generator: Adobe Illustrator 30.5.0, SVG Export Plug-In . SVG Version: 2.1.4 Build 167)  -->
  <defs>
    <style>
      .st0 {
        stroke-width: 4px;
      }

      .st0, .st1 {
        fill: none;
        stroke: #fff;
      }

      .st1 {
        stroke-linecap: round;
        stroke-linejoin: round;
        stroke-width: 3px;
      }

      .st2 {
        fill: #ff6bc5;
      }
    </style>
  </defs>
  <path class="st2" d="M30,0h0c16.57,0,30,13.43,30,30h0c0,16.57-13.43,30-30,30h0C13.43,60,0,46.57,0,30h0C0,13.43,13.43,0,30,0Z"/>
  <path class="st0" d="M30,2h0c15.46,0,28,12.54,28,28h0c0,15.46-12.54,28-28,28h0c-15.46,0-28-12.54-28-28h0C2,14.54,14.54,2,30,2Z"/>
  <path class="st2" d="M36.5,20.44v-3.94h4.5v9"/>
  <path class="st1" d="M36.5,20.44v-3.94h4.5v9"/>
  <path class="st2" d="M14,30l14.27-14.38c.19-.2.43-.36.68-.46.25-.11.53-.16.8-.16s.55.06.8.16c.25.11.49.26.68.46l14.27,14.38"/>
  <path class="st1" d="M19,30h-5l14.27-14.38c.19-.2.43-.36.68-.46.25-.11.53-.16.8-.16s.55.06.8.16c.25.11.49.26.68.46l14.27,14.38h-4.5"/>
  <path class="st2" d="M19,30v14h8v-6.79c0-.6.21-1.17.59-1.59.38-.42.88-.66,1.41-.66h2c.53,0,1.04.24,1.41.66s.59.99.59,1.59v6.79h8v-14"/>
  <path class="st1" d="M19,30v14h8v-6.79c0-.6.21-1.17.59-1.59.38-.42.88-.66,1.41-.66h2c.53,0,1.04.24,1.41.66s.59.99.59,1.59v6.79h8v-14"/>
</svg>