<svg width="50" height="31" viewBox="0 0 50 31" fill="none" xmlns="http://www.w3.org/2000/svg">
<path d="M22.9398 29.5364C18.6435 31.0443 14.2152 30.8054 10.5347 29.1781C10.2854 29.0735 9.99218 29.0586 9.7429 29.1631L5.34394 30.9248C4.47881 31.2682 3.62835 30.3724 3.99493 29.5065L5.34394 26.3265C5.50524 25.9383 5.43192 25.5053 5.16798 25.1918C4.08291 23.8929 3.21778 22.3999 2.66058 20.7129C-0.0227888 12.8448 4.72809 4.02133 13.2621 1.00551C21.8107 -1.99538 30.9019 1.94609 33.5706 9.82903C36.2393 17.712 31.4884 26.5355 22.9398 29.5364Z" fill="#FCD74B"/>
<path d="M26.547 17.9508C22.016 21.5191 15.1976 21.101 12.8222 21.116C12.221 21.116 12.0157 21.7579 12.309 22.2954C13.1595 23.878 14.2152 25.4307 16.3267 26.1921C16.9719 24.9529 18.2916 23.1315 20.5644 22.7732C23.0131 22.3701 24.4648 22.818 25.5352 23.5047C26.6789 21.8774 27.2801 19.9813 27.5587 18.8168C27.72 18.1599 27.0748 17.5328 26.5616 17.9508H26.547Z" fill="#020001"/>
<path d="M20.5497 22.7732C18.2769 23.1464 16.9573 24.9678 16.3121 26.1921C17.4118 26.5803 18.8048 26.7594 20.6084 26.5952C22.8519 26.3862 24.4208 25.0574 25.5206 23.5047C24.4501 22.818 22.9985 22.3701 20.5497 22.7732Z" fill="#EA665F"/>
<path d="M22.8735 14.6813C23.4802 14.651 23.9317 13.7919 23.8821 12.7624C23.8325 11.733 23.3005 10.923 22.6938 10.9534C22.0872 10.9837 21.6356 11.8428 21.6853 12.8722C21.7349 13.9017 22.2669 14.7116 22.8735 14.6813Z" fill="#020001"/>
<path d="M16.4033 15.9581C17.01 15.9277 17.4615 15.0686 17.4119 14.0392C17.3622 13.0097 16.8302 12.1998 16.2236 12.2301C15.617 12.2604 15.1654 13.1195 15.215 14.149C15.2647 15.1784 15.7967 15.9884 16.4033 15.9581Z" fill="#020001"/>
<path d="M37.1844 30.1772C39.5158 30.9984 41.9206 30.864 43.9148 29.9832C44.0468 29.9234 44.2081 29.9234 44.3547 29.9832L46.7448 30.9387C47.214 31.1328 47.6686 30.6401 47.478 30.1623L46.7448 28.4305C46.6568 28.2214 46.7008 27.9826 46.8474 27.8183C47.434 27.1166 47.9032 26.3104 48.2111 25.3848C49.6628 21.1149 47.0821 16.3224 42.4485 14.695C37.8149 13.0677 32.8734 15.2027 31.4218 19.4875C29.9701 23.7574 32.5508 28.5499 37.1844 30.1772Z" fill="#FCD74B"/>
<path d="M42.7564 25.0563C41.466 25.0563 37.9909 24.9966 35.3075 23.3394C34.9996 23.1453 34.633 23.4738 34.765 23.8172C35.0876 24.6831 35.6301 25.6684 36.3779 26.3851C37.4483 25.9073 39.3839 25.4146 40.9528 26.9972C41.8326 26.6687 42.6244 26.191 43.035 25.7132C43.255 25.4594 43.079 25.0713 42.7564 25.0713V25.0563Z" fill="#020001"/>
<path d="M36.3633 26.3851C36.7005 26.7135 37.0817 26.9823 37.507 27.1764C38.4601 27.5944 39.7944 27.4152 40.9382 26.9972C39.3692 25.4296 37.4337 25.9223 36.3633 26.3851Z" fill="#EA665F"/>
<path d="M38.0119 21.0555C38.0675 20.5392 37.8646 20.0929 37.5587 20.0587C37.2528 20.0245 36.9597 20.4154 36.9041 20.9318C36.8485 21.4482 37.0514 21.8945 37.3573 21.9286C37.6632 21.9628 37.9562 21.5719 38.0119 21.0555Z" fill="#020001"/>
<path d="M41.0189 21.7624C41.0745 21.2461 40.8717 20.7998 40.5658 20.7656C40.2599 20.7314 39.9668 21.1223 39.9112 21.6387C39.8555 22.1551 40.0584 22.6014 40.3643 22.6355C40.6702 22.6697 40.9633 22.2788 41.0189 21.7624Z" fill="#020001"/>
</svg>
