<svg width="82" height="82" viewBox="0 0 82 82" fill="none" xmlns="http://www.w3.org/2000/svg">
<g filter="url(#filter0_d_143_490)">
<rect x="6" y="2" width="70" height="70" rx="35" fill="#00D0D4"/>
<rect x="6" y="2" width="70" height="70" rx="35" stroke="white" stroke-width="4"/>
<circle cx="34.6539" cy="19.0769" r="5.07693" fill="#25748C"/>
<circle cx="49.8847" cy="24.7403" r="3.80769" fill="#25748C"/>
<path d="M28.1372 26.965C28.3497 26.0616 29.1559 25.4231 30.084 25.4231H38.3083C39.209 25.4231 39.9986 26.0251 40.237 26.8937L43.8056 39.8937C44.1551 41.1667 43.1971 42.4231 41.877 42.4231H27.0252C25.7355 42.4231 24.783 41.2204 25.0783 39.965L28.1372 26.965Z" fill="#25748C"/>
<path d="M45.2317 30.5858C45.3887 29.9052 45.9948 29.4231 46.6932 29.4231H52.8504C53.5286 29.4231 54.1225 29.8782 54.2988 30.5331L56.9911 40.5331C57.2477 41.4862 56.5297 42.4231 55.5427 42.4231H44.3855C43.4209 42.4231 42.7071 41.5257 42.924 40.5858L45.2317 30.5858Z" fill="#25748C"/>
<path d="M27.02 55.3431H29.84C30.44 55.3431 30.68 55.7531 30.68 56.1631C30.68 56.5931 30.43 56.9831 29.84 56.9831H22.16C21.57 56.9831 21.32 56.5931 21.32 56.1631C21.32 55.7531 21.56 55.3431 22.16 55.3431H24.98V53.6231H23.25C22.05 53.6231 21.82 53.2431 21.82 52.1031V48.8631C21.82 48.2131 22.32 47.9731 22.85 47.9731C23.35 47.9731 23.87 48.2531 23.87 48.8831V49.2931H28.12V48.8631C28.12 48.2131 28.61 47.9731 29.14 47.9731C29.65 47.9731 30.16 48.2231 30.16 48.8631V53.6231H27.02V55.3431ZM23.87 50.8431V51.7131C23.87 51.9131 23.94 52.0131 24.18 52.0131H28.12V50.8431H23.87ZM37.02 55.3431H39.84C40.44 55.3431 40.68 55.7531 40.68 56.1631C40.68 56.5931 40.43 56.9831 39.84 56.9831H32.16C31.57 56.9831 31.32 56.5931 31.32 56.1631C31.32 55.7531 31.56 55.3431 32.16 55.3431H34.98V53.8631H34.45C32.84 53.8631 31.95 52.7031 31.95 51.4131C31.95 51.0731 32.05 50.7431 32.22 50.4431H32.1C31.62 50.4431 31.32 50.0731 31.32 49.6531C31.32 49.2331 31.6 48.8831 32.09 48.8831H34.9V48.7331C34.9 48.0831 35.33 47.7131 36 47.7131C36.67 47.7131 37.1 48.0931 37.1 48.7331V48.8831H39.9C40.39 48.8831 40.67 49.2331 40.67 49.6531C40.67 50.0731 40.38 50.4431 39.9 50.4431H39.77C39.94 50.7431 40.04 51.0731 40.04 51.4131C40.04 52.7031 39.15 53.8631 37.54 53.8631H37.02V55.3431ZM33.95 51.3731C33.95 51.9131 34.28 52.3531 34.93 52.3531H37.06C37.71 52.3531 38.04 51.9131 38.04 51.3731C38.04 50.8231 37.69 50.3931 37.04 50.3931H34.95C34.3 50.3931 33.95 50.8231 33.95 51.3731ZM50.1 51.2931H50.46C51.07 51.2931 51.25 51.7631 51.25 52.1631C51.25 52.5731 51.06 53.0331 50.46 53.0331H50.1V57.1831H48.1V48.7831C48.1 48.1331 48.57 47.7931 49.1 47.7931C49.63 47.7931 50.1 48.1331 50.1 48.7831V51.2931ZM46.56 49.8831H45.26V51.2531C45.26 51.6031 45.24 51.9331 45.2 52.2531C46.57 52.7331 47.49 53.8431 47.37 56.6131H45.46C45.6 55.2631 45.35 54.4531 44.77 54.0431C44.09 55.7931 42.85 56.6931 42.05 56.6931C41.46 56.6931 41.13 56.3431 41.13 55.8931C41.13 55.5631 41.27 55.3431 41.57 55.1431C42.72 54.3831 43.34 53.1531 43.34 50.9831V49.8831H42.03C41.43 49.8831 41.18 49.4431 41.18 49.0331C41.18 48.6331 41.42 48.1831 42.03 48.1831H46.56C47.17 48.1831 47.39 48.6331 47.39 49.0331C47.39 49.4431 47.16 49.8831 46.56 49.8831ZM58.85 51.8431H59.89C60.44 51.8431 60.68 52.1831 60.68 52.5931C60.68 53.0131 60.43 53.3331 59.89 53.3331H52.11C51.57 53.3331 51.32 53.0131 51.32 52.5931C51.32 52.1831 51.56 51.8431 52.11 51.8431H53.16V51.2631C52.18 51.1231 51.65 50.5231 51.65 49.6231V49.5631C51.65 48.5331 52.34 47.8931 53.62 47.8931H58.37C59.65 47.8931 60.35 48.5331 60.35 49.5631V49.6231C60.35 50.5131 59.82 51.1131 58.85 51.2631V51.8431ZM53.69 49.5731V49.6231C53.69 49.8331 53.83 49.9731 54.14 49.9731H57.86C58.16 49.9731 58.31 49.8331 58.31 49.6231V49.5731C58.31 49.3631 58.16 49.2131 57.86 49.2131H54.14C53.83 49.2131 53.69 49.3631 53.69 49.5731ZM56.96 51.2931H55.05V51.8431H56.96V51.2931ZM53.52 53.8131H58.48C59.8 53.8131 60.4 54.5031 60.4 55.5131C60.4 56.5231 59.8 57.2131 58.48 57.2131H53.52C52.2 57.2131 51.6 56.5231 51.6 55.5131C51.6 54.5031 52.2 53.8131 53.52 53.8131ZM54.09 55.8631H57.91C58.24 55.8631 58.37 55.7231 58.37 55.5131C58.37 55.3031 58.24 55.1631 57.91 55.1631H54.09C53.76 55.1631 53.63 55.3031 53.63 55.5131C53.63 55.7231 53.76 55.8631 54.09 55.8631Z" fill="white"/>
</g>
<defs>
<filter id="filter0_d_143_490" x="0" y="0" width="82" height="82" filterUnits="userSpaceOnUse" color-interpolation-filters="sRGB">
<feFlood flood-opacity="0" result="BackgroundImageFix"/>
<feColorMatrix in="SourceAlpha" type="matrix" values="0 0 0 0 0 0 0 0 0 0 0 0 0 0 0 0 0 0 127 0" result="hardAlpha"/>
<feOffset dy="4"/>
<feGaussianBlur stdDeviation="2"/>
<feComposite in2="hardAlpha" operator="out"/>
<feColorMatrix type="matrix" values="0 0 0 0 0 0 0 0 0 0 0 0 0 0 0 0 0 0 0.25 0"/>
<feBlend mode="normal" in2="BackgroundImageFix" result="effect1_dropShadow_143_490"/>
<feBlend mode="normal" in="SourceGraphic" in2="effect1_dropShadow_143_490" result="shape"/>
</filter>
</defs>
</svg>
