<svg width="40" height="46" viewBox="0 0 40 46" fill="none" xmlns="http://www.w3.org/2000/svg">
<circle cx="13.6539" cy="5.07693" r="5.07693" fill="#25748C"/>
<circle cx="28.8847" cy="10.7403" r="3.80769" fill="#25748C"/>
<path d="M7.13717 12.965C7.34974 12.0616 8.1559 11.4231 9.084 11.4231H17.3083C18.209 11.4231 18.9986 12.0251 19.237 12.8937L22.8056 25.8937C23.1551 27.1667 22.1971 28.4231 20.877 28.4231H6.02518C4.73548 28.4231 3.78295 27.2204 4.07834 25.965L7.13717 12.965Z" fill="#25748C"/>
<path d="M24.2317 16.5858C24.3887 15.9052 24.9948 15.4231 25.6932 15.4231H31.8504C32.5286 15.4231 33.1225 15.8782 33.2988 16.5331L35.9911 26.5331C36.2477 27.4862 35.5297 28.4231 34.5427 28.4231H23.3855C22.4209 28.4231 21.7071 27.5257 21.924 26.5858L24.2317 16.5858Z" fill="#25748C"/>
<path d="M6.02 41.3431H8.84C9.44 41.3431 9.68 41.7531 9.68 42.1631C9.68 42.5931 9.43 42.9831 8.84 42.9831H1.16C0.57 42.9831 0.32 42.5931 0.32 42.1631C0.32 41.7531 0.56 41.3431 1.16 41.3431H3.98V39.6231H2.25C1.05 39.6231 0.82 39.2431 0.82 38.1031V34.8631C0.82 34.2131 1.32 33.9731 1.85 33.9731C2.35 33.9731 2.87 34.2531 2.87 34.8831V35.2931H7.12V34.8631C7.12 34.2131 7.61 33.9731 8.14 33.9731C8.65 33.9731 9.16 34.2231 9.16 34.8631V39.6231H6.02V41.3431ZM2.87 36.8431V37.7131C2.87 37.9131 2.94 38.0131 3.18 38.0131H7.12V36.8431H2.87ZM16.02 41.3431H18.84C19.44 41.3431 19.68 41.7531 19.68 42.1631C19.68 42.5931 19.43 42.9831 18.84 42.9831H11.16C10.57 42.9831 10.32 42.5931 10.32 42.1631C10.32 41.7531 10.56 41.3431 11.16 41.3431H13.98V39.8631H13.45C11.84 39.8631 10.95 38.7031 10.95 37.4131C10.95 37.0731 11.05 36.7431 11.22 36.4431H11.1C10.62 36.4431 10.32 36.0731 10.32 35.6531C10.32 35.2331 10.6 34.8831 11.09 34.8831H13.9V34.7331C13.9 34.0831 14.33 33.7131 15 33.7131C15.67 33.7131 16.1 34.0931 16.1 34.7331V34.8831H18.9C19.39 34.8831 19.67 35.2331 19.67 35.6531C19.67 36.0731 19.38 36.4431 18.9 36.4431H18.77C18.94 36.7431 19.04 37.0731 19.04 37.4131C19.04 38.7031 18.15 39.8631 16.54 39.8631H16.02V41.3431ZM12.95 37.3731C12.95 37.9131 13.28 38.3531 13.93 38.3531H16.06C16.71 38.3531 17.04 37.9131 17.04 37.3731C17.04 36.8231 16.69 36.3931 16.04 36.3931H13.95C13.3 36.3931 12.95 36.8231 12.95 37.3731ZM29.1 37.2931H29.46C30.07 37.2931 30.25 37.7631 30.25 38.1631C30.25 38.5731 30.06 39.0331 29.46 39.0331H29.1V43.1831H27.1V34.7831C27.1 34.1331 27.57 33.7931 28.1 33.7931C28.63 33.7931 29.1 34.1331 29.1 34.7831V37.2931ZM25.56 35.8831H24.26V37.2531C24.26 37.6031 24.24 37.9331 24.2 38.2531C25.57 38.7331 26.49 39.8431 26.37 42.6131H24.46C24.6 41.2631 24.35 40.4531 23.77 40.0431C23.09 41.7931 21.85 42.6931 21.05 42.6931C20.46 42.6931 20.13 42.3431 20.13 41.8931C20.13 41.5631 20.27 41.3431 20.57 41.1431C21.72 40.3831 22.34 39.1531 22.34 36.9831V35.8831H21.03C20.43 35.8831 20.18 35.4431 20.18 35.0331C20.18 34.6331 20.42 34.1831 21.03 34.1831H25.56C26.17 34.1831 26.39 34.6331 26.39 35.0331C26.39 35.4431 26.16 35.8831 25.56 35.8831ZM37.85 37.8431H38.89C39.44 37.8431 39.68 38.1831 39.68 38.5931C39.68 39.0131 39.43 39.3331 38.89 39.3331H31.11C30.57 39.3331 30.32 39.0131 30.32 38.5931C30.32 38.1831 30.56 37.8431 31.11 37.8431H32.16V37.2631C31.18 37.1231 30.65 36.5231 30.65 35.6231V35.5631C30.65 34.5331 31.34 33.8931 32.62 33.8931H37.37C38.65 33.8931 39.35 34.5331 39.35 35.5631V35.6231C39.35 36.5131 38.82 37.1131 37.85 37.2631V37.8431ZM32.69 35.5731V35.6231C32.69 35.8331 32.83 35.9731 33.14 35.9731H36.86C37.16 35.9731 37.31 35.8331 37.31 35.6231V35.5731C37.31 35.3631 37.16 35.2131 36.86 35.2131H33.14C32.83 35.2131 32.69 35.3631 32.69 35.5731ZM35.96 37.2931H34.05V37.8431H35.96V37.2931ZM32.52 39.8131H37.48C38.8 39.8131 39.4 40.5031 39.4 41.5131C39.4 42.5231 38.8 43.2131 37.48 43.2131H32.52C31.2 43.2131 30.6 42.5231 30.6 41.5131C30.6 40.5031 31.2 39.8131 32.52 39.8131ZM33.09 41.8631H36.91C37.24 41.8631 37.37 41.7231 37.37 41.5131C37.37 41.3031 37.24 41.1631 36.91 41.1631H33.09C32.76 41.1631 32.63 41.3031 32.63 41.5131C32.63 41.7231 32.76 41.8631 33.09 41.8631Z" fill="white"/>
</svg>
